<svg viewBox="0 0 1024 1024" version="1.1"
    xmlns="http://www.w3.org/2000/svg"
    width="200" height="200">
    <path
        d="M890.08810667 619.20597333c18.07701333 0 32.768-14.69098667 32.768-32.768V254.88042667c0-103.87456-84.48682667-188.36138667-188.36138667-188.36138667H294.69354667c-103.87456 0-188.36138667 84.48682667-188.36138667 188.36138667v514.23914666c0 103.87456 84.48682667 188.36138667 188.36138667 188.36138667h439.80117333c103.87456 0 188.36138667-84.48682667 188.36138667-188.36138667 0-18.07701333-14.69098667-32.768-32.768-32.768s-32.768 14.69098667-32.768 32.768c0 67.72053333-55.10485333 122.82538667-122.82538667 122.82538667H294.69354667c-67.72053333 0-122.82538667-55.10485333-122.82538667-122.82538667V254.88042667c0-67.72053333 55.10485333-122.82538667 122.82538667-122.82538667h439.80117333c67.72053333 0 122.82538667 55.10485333 122.82538667 122.82538667v331.61216a32.71338667 32.71338667 0 0 0 32.768 32.71338666z"
        fill="currentColor"></path>
    <path
        d="M288.46762667 310.36757333h107.53365333c18.07701333 0 32.768-14.69098667 32.768-32.768s-14.69098667-32.768-32.768-32.768H288.46762667c-18.07701333 0-32.768 14.69098667-32.768 32.768s14.63637333 32.768 32.768 32.768zM288.46762667 474.04373333h107.53365333c18.07701333 0 32.768-14.69098667 32.768-32.768s-14.69098667-32.768-32.768-32.768H288.46762667c-18.07701333 0-32.768 14.69098667-32.768 32.768s14.63637333 32.768 32.768 32.768zM288.46762667 791.01952h455.36597333c18.07701333 0 32.768-14.69098667 32.768-32.768s-14.69098667-32.768-32.768-32.768H288.46762667c-18.07701333 0-32.768 14.69098667-32.768 32.768s14.63637333 32.768 32.768 32.768zM288.46762667 637.71989333h349.03381333c18.07701333 0 32.768-14.69098667 32.768-32.768s-14.69098667-32.768-32.768-32.768H288.46762667c-18.07701333 0-32.768 14.69098667-32.768 32.768s14.63637333 32.768 32.768 32.768z"
        fill="currentColor"></path>
    <path
        d="M692.06016 497.41824h-117.30944c-46.63978667 0-84.54144-37.90165333-84.54144-84.54144v-103.76533333c0-46.58517333 37.90165333-84.54144 84.54144-84.54144h117.30944c46.63978667 0 84.54144 37.90165333 84.54144 84.54144v103.76533333c0 46.63978667-37.95626667 84.54144-84.54144 84.54144z m-117.36405333-207.31221333c-10.48576 0-19.00544 8.51968-19.00544 19.00544v103.76533333c0 10.48576 8.51968 19.00544 19.00544 19.00544h117.30944c10.48576 0 19.00544-8.51968 19.00544-19.00544v-103.76533333c0-10.48576-8.51968-19.00544-19.00544-19.00544h-117.30944z"
        fill="currentColor"></path>
</svg>