<svg viewBox="0 0 1024 1024" version="1.1"
    xmlns="http://www.w3.org/2000/svg"
    width="200" height="200">
    <path
        d="M889.344 731.05066667c-1.792 6.272-9.856 10.624-20.544 16.384-11.584 6.08-21.632 5.504-28.8 3.52-6.976-2.048-13.248-6.656-18.496-13.632l-96.256-127.36-116.8 126.72c-13.952 15.104-29.76 17.344-47.808 6.656-7.424-4.352-20.992-20.48-22.592-27.776-1.536-7.232 1.344-14.848 8.768-22.976l129.152-140.544L581.888 427.56266667C577.984 421.86666667 577.6 415.21066667 580.672 407.65866667c2.944-7.552 9.92-12.032 17.344-16.448 10.688-6.016 20.48-6.208 27.712-5.632C633.024 386.02666667 639.616 390.18666667 645.696 397.86666667l78.208 101.952 94.656-103.104C826.752 387.62666667 836.032 384.42666667 844.992 381.86666667c8.896-2.56 26.496 6.656 36.096 12.032 9.856 5.312 14.976 11.456 15.616 18.368 0.576 6.912-2.112 13.696-8.256 20.416l-115.648 125.44 114.112 156.48C890.496 719.27466667 891.392 724.90666667 889.344 731.05066667zM592.128 107.24266667C552 102.69866667 467.968 96.68266667 417.024 129.64266667 365.952 162.73066667 336.64 219.56266667 322.432 287.14666667L302.4 382.63466667 158.592 382.63466667c-16.704 0-30.016 4.8-31.424 34.752 1.408 16.32 14.72 29.248 31.424 29.248L288.64 446.63466667l-85.696 418.688c0 0-21.952 68.288 26.048 71.296 41.92 2.624 50.24-65.6 50.24-65.6l86.4-424.384 109.76 0c17.664 0 32-14.336 32-32s-14.336-32-32-32L379.264 382.63466667l19.008-93.568C438.912 139.94666667 514.688 176.17066667 584.704 176.17066667c11.456 0 54.656 3.008 57.664-26.56C646.208 112.61866667 609.024 109.16266667 592.128 107.24266667zM126.592 422.05866667c0-1.92 0.448-2.88 0.576-4.608C127.04 416.49066667 126.592 415.65866667 126.592 414.63466667L126.592 422.05866667z"
        fill="currentColor"></path>
</svg>