<svg viewBox="0 0 1034 1024" version="1.1" xmlns="http://www.w3.org/2000/svg" width="201.953125"
    height="200">
    <path
        d="M921.21875 545.75l-185.625-105.46875v-210.9375c0-8.4375-4.21875-16.875-12.65625-21.09375L520.4375 94.34375c-4.21875-4.21875-12.65625-4.21875-21.09375 0L296.84375 208.25c-4.21875 4.21875-8.4375 12.65625-8.4375 21.09375v210.9375L102.78125 545.75c-8.4375 4.21875-12.65625 12.65625-12.65625 21.09375v227.8125c0 8.4375 4.21875 16.875 12.65625 21.09375l202.5 113.90625c8.4375 4.21875 16.875 4.21875 25.3125 0l185.625-105.46875 185.625 105.46875c4.21875 4.21875 8.4375 4.21875 12.65625 4.21875s8.4375 0 12.65625-4.21875l202.5-113.90625c8.4375-4.21875 12.65625-12.65625 12.65625-21.09375v-227.8125c-8.4375-8.4375-12.65625-16.875-21.09375-21.09375z m-632.8125 151.875v160.3125l-143.4375-80.15625v-160.3125l143.4375 80.15625z m194.0625-337.5v160.3125L343.25 440.28125V279.96875l139.21875 80.15625z m-25.3125 210.9375l-139.21875 80.15625L174.5 571.0625l139.21875-80.15625 143.4375 80.15625z m25.3125 46.40625v160.3125L343.25 857.9375v-160.3125l139.21875-80.15625z m168.75-388.125L512 309.5 372.78125 229.34375 512 149.1875l139.21875 80.15625z m198.28125 341.71875l-139.21875 80.15625-139.21875-80.15625 139.21875-80.15625 139.21875 80.15625z m-168.75 126.5625v160.3125l-143.4375-80.15625v-160.3125l143.4375 80.15625z m-139.21875-177.1875V360.125L680.75 279.96875v160.3125l-139.21875 80.15625z m337.5 97.03125v160.3125l-143.4375 80.15625v-160.3125l143.4375-80.15625z"
        fill="currentColor"></path>
</svg>