<svg viewBox="0 0 1024 1024" version="1.1"
    xmlns="http://www.w3.org/2000/svg"
    width="200" height="200">
    <path
        d="M829.34375 631.90625c0.65625 36.09375 52.40625 37.21875 52.40625 1.78125V144.78125c0-29.15625-23.625-52.78125-52.78125-52.78125H195.03125c-29.15625 0-52.78125 23.625-52.78125 52.78125v734.25c0 29.15625 23.625 52.78125 52.78125 52.78125h290.34375c14.625 0 26.625-11.71875 26.625-26.34375 0-15.9375-10.59375-26.53125-26.4375-26.53125H221.46875c-14.625 0-26.4375-11.8125-26.4375-26.4375V171.21875c0-14.625 11.8125-26.4375 26.4375-26.4375h581.0625c14.625 0 26.4375 11.8125 26.4375 26.4375"
        fill="currentColor"></path>
    <path
        d="M327.125 356.09375h369.75c15.84375 0 26.4375-10.59375 26.4375-26.4375s-10.59375-26.4375-26.4375-26.4375H327.125c-15.84375 0-26.4375 10.59375-26.4375 26.4375s10.59375 26.4375 26.4375 26.4375zM327.125 514.625h369.75c15.84375 0 26.4375-10.59375 26.4375-26.4375s-10.59375-26.4375-26.4375-26.4375H327.125c-15.84375 0-26.4375 10.59375-26.4375 26.4375s10.59375 26.4375 26.4375 26.4375zM327.125 673.15625h158.4375c15.84375 0 26.4375-10.59375 26.4375-26.4375s-10.59375-26.4375-26.4375-26.4375h-158.4375c-15.84375 0-26.4375 10.59375-26.4375 26.4375s10.59375 26.4375 26.4375 26.4375zM855.3125 778.8125h-79.21875v-79.21875c0-15.84375-10.59375-26.4375-26.4375-26.4375s-26.4375 10.59375-26.4375 26.4375v79.21875h-79.21875c-15.84375 0-26.4375 10.59375-26.4375 26.4375s10.59375 26.4375 26.4375 26.4375h79.21875v73.96875c0 15.84375 10.59375 26.4375 26.4375 26.4375s26.4375-10.59375 26.4375-26.4375V831.6875h79.21875c15.84375 0 26.4375-10.59375 26.4375-26.4375s-10.59375-26.4375-26.4375-26.4375z"
        fill="currentColor"></path>
</svg>