<svg viewBox="0 0 1024 1024" version="1.1" xmlns="http://www.w3.org/2000/svg" width="200"
    height="200">
    <path
        d="M802.32448 78.6432H221.78474667A141.50314667 141.50314667 0 0 0 80.55466667 219.98250667v580.59434666a141.44853333 141.44853333 0 0 0 141.33930666 141.28469334h580.53973334A141.44853333 141.44853333 0 0 0 943.44533333 800.57685333V219.98250667a141.50314667 141.50314667 0 0 0-141.12085333-141.33930667zM877.90933333 800.57685333a75.85792 75.85792 0 0 1-75.80330666 75.74869334H221.78474667A75.85792 75.85792 0 0 1 146.09066667 800.57685333V219.98250667a75.91253333 75.91253333 0 0 1 75.69408-75.80330667h580.53973333A75.85792 75.85792 0 0 1 877.90933333 219.98250667z"
        fill="currentColor"></path>
    <path
        d="M689.7664 232.21589333H450.06848a32.768 32.768 0 0 0 0 65.536h239.69792c9.66656 0 17.80394667 10.54037333 17.80394667 23.04682667v406.37781333a12.17877333 12.17877333 0 0 1-12.12416 12.12416h-25.66826667a32.768 32.768 0 1 0 0 65.536h25.66826667a77.76938667 77.76938667 0 0 0 77.66016-77.66016V320.85333333c0-49.152-37.19168-88.63744-83.33994667-88.63744z"
        fill="currentColor"></path>
    <path
        d="M470.76693333 436.19669333h149.9136a32.768 32.768 0 0 0 0-65.536H470.76693333a32.768 32.768 0 1 0 0 65.536zM653.12085333 671.79861333V505.33717333a32.768 32.768 0 0 0-32.768-32.768H477.10208a32.768 32.768 0 0 0-32.768 32.768v166.46144a32.768 32.768 0 0 0 32.768 32.768h143.25077333a32.768 32.768 0 0 0 32.768-32.768z m-65.536-32.768H509.87008v-100.92544h77.71477333zM276.0704 329.42762667a32.768 32.768 0 1 0 47.62282667-45.00138667l-34.13333334-36.20864a32.768 32.768 0 0 0-47.67744 45.00138667zM365.96394667 671.03402667l-23.81141334 12.94336 37.19168-273.72202667a32.768 32.768 0 0 0-32.44032-37.19168H257.28341333a32.768 32.768 0 0 0 0 65.536h52.04650667l-40.85077333 300.37333333a32.768 32.768 0 0 0 48.11434666 33.25952l80.60928-43.69066666a32.768 32.768 0 0 0-31.23882666-57.67168z"
        fill="currentColor"></path>
</svg>