<svg viewBox="0 0 1024 1024" version="1.1" xmlns="http://www.w3.org/2000/svg" width="200"
    height="200">
    <path
        d="M802.133333 102.4a136.533333 136.533333 0 0 1 136.465067 132.266667L938.666667 238.933333v153.6a136.533333 136.533333 0 0 1-132.266667 136.465067L802.133333 529.066667v187.733333a136.533333 136.533333 0 0 1-136.533333 136.533333H283.392l-144.9984 96.6656c-21.9648 14.6432-51.165867-0.1536-52.974933-25.873066L85.333333 921.6V512a136.533333 136.533333 0 0 1 136.533334-136.533333l51.2-0.017067V238.933333a136.533333 136.533333 0 0 1 132.266666-136.465066L409.6 102.4h392.533333zM306.824533 443.716267L221.866667 443.733333a68.266667 68.266667 0 0 0-68.266667 68.266667v345.8048l100.522667-67.003733a34.133333 34.133333 0 0 1 16.059733-5.614934L273.066667 785.066667h392.533333a68.266667 68.266667 0 0 0 68.266667-68.266667V512a68.266667 68.266667 0 0 0-68.266667-68.266667H307.2l-0.375467-0.017066zM290.133333 563.2a51.2 51.2 0 1 1 0 102.4 51.2 51.2 0 0 1 0-102.4z m153.6 0a51.2 51.2 0 1 1 0 102.4 51.2 51.2 0 0 1 0-102.4z m153.6 0a51.2 51.2 0 1 1 0 102.4 51.2 51.2 0 0 1 0-102.4z m204.8-392.533333H409.6a68.266667 68.266667 0 0 0-68.181333 64.853333L341.333333 238.933333v136.516267L665.6 375.466667a136.584533 136.584533 0 0 1 126.600533 85.333333H802.133333a68.266667 68.266667 0 0 0 68.181334-64.853333L870.4 392.533333v-153.6a68.266667 68.266667 0 0 0-64.853333-68.181333L802.133333 170.666667z"
        fill="currentColor"></path>
</svg>