<svg viewBox="0 0 1024 1024" version="1.1"
    xmlns="http://www.w3.org/2000/svg"
    width="200" height="200">
    <path
        d="M512 932c-219.74496 0-398.5344-178.78944-398.5344-398.5344S292.25504 134.9312 512 134.9312c109.57344 0 211.66176 43.53024 287.5248 122.56608 9.04128 9.40032 41.31456 44.54784 49.33824 54.78624 10.41888 13.35264 8.02368 32.63232-5.32896 43.0512-13.41216 10.41888-32.6928 7.9632-43.0512-5.32896-7.30464-9.40032-36.94368-41.43456-45.14688-49.9968C691.08896 233.06816 604.688 196.24448 512 196.24448c-185.91456 0-337.22112 151.30656-337.22112 337.22112S326.08544 870.68672 512 870.68672 849.22112 719.38016 849.22112 533.4656c0-16.94496 13.71168-30.65664 30.65664-30.65664s30.65664 13.71168 30.65664 30.65664c0 219.74496-178.78944 398.5344-398.5344 398.5344z"
        fill="currentColor"></path>
    <path
        d="M818.26592 380.18336H616.24448c-16.94496 0-30.65664-13.71168-30.65664-30.65664s13.71168-30.65664 30.65664-30.65664h196.21344V122.65664c0-16.94496 13.71168-30.65664 30.65664-30.65664s30.65664 13.71168 30.65664 30.65664v202.02144c-0.00096 30.59616-24.90912 55.50528-55.50528 55.50528z"
        fill="currentColor"></path>
</svg>