<svg viewBox="0 0 1024 1024" xmlns="http://www.w3.org/2000/svg" width="200" height="200"><path d="M638.57777814 287.28888854h-295.82222294c-18.2044448 0-34.13333333 15.92888853-34.13333333 34.13333333s15.92888853 34.13333333 34.13333333 34.13333334h295.82222294c18.2044448 0 34.13333333-15.92888853 34.13333333-34.13333334s-13.65333333-34.13333333-34.13333333-34.13333333z m-432.35555627 523.37777813C174.3644448 810.66666667 149.33333334 785.63555521 149.33333334 753.77777814v-568.8888896C149.33333334 153.03111147 174.3644448 128.00000001 206.22222187 128.00000001h568.8888896c31.85777813 0 56.88888853 25.03111147 56.88888853 56.88888853V423.82222187l68.26666667 56.8888896v-295.82222293c0-68.26666667-56.88888853-125.1555552-125.1555552-125.1555552h-568.8888896C137.9555552 59.73333334 81.06666667 116.62222187 81.06666667 184.88888854v568.8888896c0 68.26666667 56.88888853 125.1555552 125.1555552 125.1555552H490.66666667c-15.92888853-20.48-27.30666667-43.2355552-36.40888853-68.26666667H206.22222187z m68.26666667-375.46666666c-18.2044448 0-34.13333333 15.92888853-34.13333334 34.13333333s15.92888853 34.13333333 34.13333334 34.13333333H490.66666667l56.88888853-68.26666666h-273.06666666z m68.26666666 147.91111146c-18.2044448 0-34.13333333 15.92888853-34.13333333 34.13333334s15.92888853 34.13333333 34.13333333 34.13333333h118.3288896l-13.65333333-68.26666667h-104.67555627z m605.29777814 43.2355552l20.48-20.48c-9.10222187-25.03111147-22.7555552-50.06222187-38.6844448-70.54222186l-27.30666667 9.10222186c-50.06222187 13.65333333-102.4-15.92888853-113.77777707-65.99111146l-6.82666666-31.85777707c-13.65333333-2.2755552-25.03111147-2.2755552-38.6844448-2.27555627s-27.30666667 0-38.6844448 2.27555627l-6.82666667 31.85777707c-11.37777813 50.06222187-63.7155552 79.6444448-113.77777707 65.99111146l-27.30666666-9.10222186c-15.92888853 20.48-29.58222187 45.51111147-38.6844448 70.54222186l20.48 20.48c36.40888853 36.40888853 36.40888853 95.57333333 0 131.98222187l-25.03111147 18.2044448c9.10222187 25.03111147 22.7555552 50.06222187 38.6844448 70.54222187l27.30666667-9.10222187c50.06222187-13.65333333 102.4 15.92888853 113.77777813 65.99111147l6.82666667 31.85777706c13.65333333 2.2755552 25.03111147 2.2755552 38.68444373 2.27555627 13.65333333 0 27.30666667 0 38.6844448-2.27555627l6.82666667-31.85777706c11.37777813-50.06222187 63.7155552-79.6444448 113.77777813-65.99111147l27.30666667 9.10222187c15.92888853-20.48 29.58222187-45.51111147 38.68444373-70.54222187l-20.48-20.48c-31.85777813-34.13333333-31.85777813-95.57333333 4.55111147-129.70666667zM740.97777814 760.60444481c-38.6844448 0-68.26666667-29.58222187-68.26666667-68.26666667s29.58222187-68.26666667 68.26666667-68.26666667 68.26666667 29.58222187 68.26666666 68.26666667-29.58222187 68.26666667-68.26666666 68.26666667z" fill="currentColor" ></path></svg>