<svg class="icon" viewBox="0 0 1024 1024" version="1.1"
    xmlns="http://www.w3.org/2000/svg"
    width="200" height="200">
    <path
        d="M869.89824 412.85632c0-197.29408-160.51712-357.80608-357.8112-357.80608-197.29408 0-357.80096 160.512-357.80096 357.80608 0 87.35232 31.50336 167.45984 83.69664 229.65248-0.128 1.152-0.34816 2.2784-0.34816 3.47136v252.87168c0 28.09344 11.4688 50.14016 31.4624 60.48256 19.98848 10.34752 44.60544 6.95296 67.52768-9.27744l131.64032-93.19424c17.43872-12.33408 49.67936-13.04064 67.62496-1.46432l151.27552 97.59744c13.73696 8.8576 27.96032 13.35296 41.40032 13.35296 9.43104 0 18.47296-2.21184 26.68032-6.68672 19.89632-10.83904 31.3088-33.00352 31.3088-60.81536v-252.87168c0-1.19296-0.22016-2.31936-0.34816-3.4816 52.18816-62.17728 83.69152-142.2848 83.69152-229.63712z m-357.80608-296.13056c163.29216 0 296.13568 132.84352 296.13568 296.13056s-132.84352 296.13056-296.13568 296.13056c-163.28192 0-296.12544-132.84352-296.12544-296.13056s132.8384-296.13056 296.12544-296.13056z m212.50048 786.67776a34.10944 34.10944 0 0 1-3.98848-2.23232l-151.28064-97.60256c-38.89664-25.07776-98.92864-23.77216-136.69376 2.94912l-131.64032 93.20448c-0.57344 0.39936-1.12128 0.768-1.62816 1.09568a39.0912 39.0912 0 0 1-0.04608-1.9712v-198.528c59.51488 44.17024 133.14048 70.34368 212.77696 70.34368 79.6416 0 153.27744-26.17856 212.7872-70.34368v198.528a33.47456 33.47456 0 0 1-0.28672 4.5568z"
        fill="currentColor"></path>
    <path
        d="M328.95488 331.43296h183.1424a30.83776 30.83776 0 1 0 0-61.67552h-183.1424a30.84288 30.84288 0 0 0 0 61.67552zM328.95488 506.18368h346.68544a30.83776 30.83776 0 0 0 0-61.67552H328.95488a30.84288 30.84288 0 0 0 0 61.67552z"
        fill="currentColor"></path>
</svg>