<svg viewBox="0 0 1024 1024" xmlns="http://www.w3.org/2000/svg" width="200" height="200"><path d="M962 512q0 11.04609375-0.54140625 22.07988281-0.54316406 11.03378906-1.62597656 22.02714844-1.0828125 10.99511719-2.70351563 21.92167969t-3.77578125 21.76171875q-2.15507813 10.83515625-4.83925781 21.55078125-2.68417969 10.715625-5.89042969 21.28710937-3.20800781 10.57148437-6.92929687 20.97246094-3.72128906 10.40097656-7.94882813 20.60683594-4.22753906 10.20585938-8.95078125 20.19199218t-9.92988281 19.7296875q-5.20839844 9.74179687-10.88789062 19.21640625-5.67773438 9.47636719-11.81601563 18.6609375-6.13652344 9.18457031-12.71777344 18.05800782t-13.58789062 17.41289062q-7.00839844 8.53945313-14.428125 16.72382813-7.41796875 8.18613281-15.2296875 15.99609375-7.80996094 7.81171875-15.99609375 15.2296875-8.184375 7.41972656-16.72382813 14.428125-8.53945313 7.00664063-17.41289062 13.58789062-8.8734375 6.58125-18.05800781 12.71777344-9.18457031 6.13828125-18.66093751 11.81601563-9.47460938 5.67949219-19.21640625 10.88789062-9.74355469 5.20664063-19.7296875 9.92988281t-20.19199218 8.95078125q-10.20585938 4.22753906-20.60683594 7.94882813-10.40097656 3.72128906-20.97246094 6.92929687-10.57148437 3.20625-21.28710937 5.89042969-10.715625 2.68417969-21.55078125 4.83925781-10.83515625 2.15507813-21.76171875 3.77578125-10.9265625 1.62070312-21.92167969 2.70351563-10.99335938 1.0828125-22.02714844 1.62597656Q523.04609375 962 512 962t-22.07988281-0.54140625q-11.03378906-0.54316406-22.02714844-1.62597656-10.99511719-1.0828125-21.92167969-2.70351563t-21.76171875-3.77578125q-10.83515625-2.15507813-21.55078125-4.83925781-10.715625-2.68417969-21.28710937-5.89042969-10.57148437-3.20800781-20.97246094-6.92929687-10.40097656-3.72128906-20.60683594-7.94882813-10.20585938-4.22753906-20.19199218-8.95078125t-19.7296875-9.92988281q-9.74179687-5.20839844-19.21640625-10.88789062-9.47636719-5.67773438-18.6609375-11.81601563-9.18457031-6.13652344-18.05800782-12.71777344t-17.41289062-13.58789062q-8.53945313-7.00839844-16.72382813-14.428125-8.18613281-7.41796875-15.99609375-15.2296875-7.81171875-7.80996094-15.2296875-15.99609375-7.41796875-8.184375-14.428125-16.72382813-7.00664063-8.53945313-13.58789062-17.41289062-6.58125-8.8734375-12.71777344-18.05800781-6.13828125-9.18457031-11.81601563-18.66093751-5.67949219-9.47460938-10.88789062-19.21640625-5.20664063-9.74355469-9.93164063-19.7296875-4.72148438-9.98613281-8.94902343-20.19199218-4.22753906-10.20585938-7.94882813-20.60683594-3.72128906-10.40097656-6.92929687-20.97246094-3.20625-10.57148437-5.89042969-21.28710937-2.68417969-10.715625-4.83925781-21.55078125-2.15507813-10.83515625-3.77578125-21.76171875-1.62070312-10.9265625-2.70351563-21.92167969-1.0828125-10.99335938-1.62597656-22.02714844Q62 523.04609375 62 512t0.54140625-22.07988281q0.54316406-11.03378906 1.62597656-22.02714844 1.0828125-10.99511719 2.70351563-21.92167969t3.77578125-21.76171875q2.15507813-10.83515625 4.83925781-21.55078125 2.68417969-10.715625 5.89042969-21.28710937 3.20800781-10.57148437 6.92929687-20.97246094 3.72128906-10.40097656 7.94882813-20.60683594 4.22753906-10.20585938 8.95078125-20.19199218t9.93164062-19.7296875q5.20664063-9.74179687 10.88613281-19.21640625 5.67773438-9.47636719 11.81601563-18.6609375 6.13652344-9.18457031 12.71777344-18.05800782t13.58789062-17.41289062q7.00839844-8.53945313 14.428125-16.72382813 7.41796875-8.18613281 15.2296875-15.99609375 7.80996094-7.81171875 15.99609375-15.2296875 8.184375-7.41796875 16.72382813-14.428125 8.53945313-7.00664063 17.41289062-13.58789062 8.8734375-6.58125 18.05800781-12.71777344 9.18457031-6.13828125 18.66093751-11.81601563 9.47460938-5.67949219 19.21640625-10.88789062 9.74355469-5.20664063 19.7296875-9.93164063 9.98613281-4.72148438 20.19199218-8.94902343 10.20585938-4.22753906 20.60683594-7.94882813 10.40097656-3.72128906 20.97246094-6.92929687 10.57148437-3.20625 21.28710937-5.89042969 10.715625-2.68417969 21.55078125-4.83925781 10.83515625-2.15507813 21.76171875-3.77578125 10.9265625-1.62070312 21.92167969-2.70351563 10.99335938-1.0828125 22.02714844-1.62597656Q500.95390625 62 512 62t22.07988281 0.54140625q11.03378906 0.54316406 22.02714844 1.62597656 10.99511719 1.0828125 21.92167969 2.70351563t21.76171875 3.77578125q10.83515625 2.15507813 21.55078125 4.83925781 10.715625 2.68417969 21.28710937 5.89042969 10.57148437 3.20800781 20.97246094 6.92929687 10.40097656 3.72128906 20.60683594 7.94882813 10.20585938 4.22753906 20.19199218 8.95078125t19.7296875 9.93164062q9.74179687 5.20664063 19.21640625 10.88613281 9.47636719 5.67773438 18.6609375 11.81601563 9.18457031 6.13652344 18.05800782 12.71777344t17.41289062 13.58789062q8.53945313 7.00839844 16.72382813 14.428125 8.18613281 7.41796875 15.99609375 15.2296875 7.81171875 7.80996094 15.2296875 15.99609375 7.41972656 8.184375 14.428125 16.72382813 7.00664063 8.53945313 13.58789062 17.41289062 6.58125 8.8734375 12.71777344 18.05800781 6.13828125 9.18457031 11.81601563 18.66093751 5.67949219 9.47460938 10.88789062 19.21640625 5.20664063 9.74355469 9.92988281 19.7296875t8.95078125 20.19199218q4.22753906 10.20585938 7.94882813 20.60683594 3.72128906 10.40097656 6.92929687 20.97246094 3.20625 10.57148437 5.89042969 21.28710937 2.68417969 10.715625 4.83925781 21.55078125 2.15507813 10.83515625 3.77578125 21.76171875 1.62070312 10.9265625 2.70351563 21.92167969 1.0828125 10.99335938 1.62597656 22.02714844Q962 500.95390625 962 512z m-73.828125 0q0-9.23378906-0.45351563-18.45703125-0.45351563-9.225-1.35703124-18.41484375-0.90527344-9.18984375-2.26054688-18.3234375-1.35527344-9.13535156-3.15703125-18.19160156-1.80175781-9.05800781-4.04472656-18.01582032-2.24472656-8.9578125-4.92539063-17.79433593-2.68066406-8.83652344-5.79199218-17.53066407-3.10957031-8.69589844-6.64453125-17.2265625-3.53320313-8.53242188-7.48125-16.88027343-3.94804687-8.34785156-8.30214844-16.49179688-4.35234375-8.14394531-9.10019531-16.06464844-4.74785156-7.92070313-9.87890625-15.59882812-5.12929688-7.678125-10.63125-15.09609375-5.50019531-7.41621094-11.35898438-14.5546875-5.85878906-7.13847656-12.05859375-13.98164063-6.2015625-6.84140625-12.73183594-13.37167968-6.53027344-6.53027344-13.37167968-12.73183594-6.84316406-6.2015625-13.98164063-12.05859375-7.13847656-5.85878906-14.5546875-11.35898438-7.41796875-5.50195313-15.09609375-10.63300781-7.678125-5.12929688-15.59882813-9.87714844-7.92070313-4.74609375-16.06464843-9.10019531-8.14394531-4.35410156-16.49179688-8.30214844t-16.88027343-7.48125q-8.53066406-3.53320313-17.22656251-6.64453125-8.69414062-3.11132813-17.53066406-5.79199218-8.83652344-2.68066406-17.79433594-4.92539063-8.9578125-2.24296875-18.01582031-4.04472656-9.05625-1.80175781-18.19160156-3.15703125-9.13359375-1.35351563-18.3234375-2.25878906-9.18984375-0.90527344-18.41484375-1.35878907Q521.23378906 135.828125 512 135.828125t-18.45703125 0.45351563q-9.225 0.45351563-18.41484375 1.35878906-9.18984375 0.90351563-18.3234375 2.25878906-9.13535156 1.35527344-18.19160156 3.15703125-9.05800781 1.80175781-18.01582032 4.04472656-8.9578125 2.24472656-17.79433593 4.92539063-8.83652344 2.68066406-17.53066407 5.79199219-8.69589844 3.11132813-17.2265625 6.64453125-8.53242188 3.53320313-16.88027343 7.48125-8.34785156 3.94804687-16.49179688 8.30214843-8.14394531 4.35234375-16.06464844 9.10019532-7.92070313 4.74609375-15.59882812 9.87890625-7.678125 5.12929688-15.09609375 10.63125-7.41621094 5.50019531-14.5546875 11.35898437-7.13847656 5.85878906-13.98164063 12.05859375-6.84140625 6.2015625-13.37167968 12.73183594-6.53027344 6.53027344-12.73183594 13.37167969-6.2015625 6.84316406-12.05859375 13.98164062-5.85878906 7.13847656-11.35898438 14.5546875-5.50195313 7.41796875-10.63300781 15.09609375-5.12929688 7.678125-9.87714844 15.59882813-4.74609375 7.92070313-9.10019531 16.06464843-4.35410156 8.14394531-8.30214844 16.49179688t-7.48125 16.88027344q-3.53320313 8.53066406-6.64453125 17.2265625-3.11132813 8.69414062-5.79199218 17.53066406-2.68066406 8.83652344-4.92539063 17.79433594-2.24296875 8.9578125-4.04472656 18.01582031-1.80175781 9.05625-3.15703125 18.19160156-1.35351563 9.13359375-2.25878906 18.3234375-0.90527344 9.18984375-1.35878907 18.41484375Q135.828125 502.76621094 135.828125 512t0.45351563 18.45703125q0.45351563 9.225 1.35878906 18.41484375 0.90351563 9.18984375 2.25878906 18.3234375 1.35527344 9.13535156 3.15703125 18.19160156 1.80175781 9.05800781 4.04472656 18.01582032 2.24472656 8.9578125 4.92539063 17.79433593 2.68066406 8.83652344 5.79199219 17.53066407 3.11132813 8.69589844 6.64453125 17.2265625 3.53320313 8.53242188 7.48125 16.88027343 3.94804687 8.34785156 8.30214843 16.49179688 4.35234375 8.14394531 9.10019532 16.06464844 4.74609375 7.92070313 9.87890625 15.59882812 5.12929688 7.678125 10.63125 15.09609375 5.50019531 7.41621094 11.35898437 14.5546875 5.85878906 7.13847656 12.05859375 13.98164063 6.2015625 6.84140625 12.73183594 13.37167968 6.53027344 6.53027344 13.37167969 12.73183594 6.84316406 6.19980469 13.98164062 12.05859375t14.5546875 11.35898438q7.41796875 5.50195313 15.09609375 10.63125 7.678125 5.13105469 15.59882813 9.87890625t16.06464843 9.10019531q8.14394531 4.35410156 16.49179688 8.30214844t16.88027344 7.48125q8.53066406 3.53496094 17.2265625 6.64453125 8.69414062 3.11132813 17.53066406 5.79199218 8.83652344 2.68066406 17.79433594 4.92539063 8.9578125 2.24296875 18.01582031 4.04472656 9.05625 1.80175781 18.19160156 3.15703125 9.13359375 1.35527344 18.3234375 2.26054688 9.18984375 0.90351563 18.41484375 1.35703125 9.22324219 0.45351563 18.45703125 0.45351562t18.45703125-0.45351562q9.225-0.45351563 18.41484375-1.35703125 9.18984375-0.90527344 18.3234375-2.26054688 9.13535156-1.35527344 18.19160156-3.15703125 9.05800781-1.80175781 18.01582032-4.04472656 8.9578125-2.24472656 17.79433593-4.92539063 8.83652344-2.68066406 17.53066407-5.79199218 8.69589844-3.10957031 17.2265625-6.64453125 8.53242188-3.53320313 16.88027343-7.48125 8.34785156-3.94804687 16.49179688-8.30214844 8.14394531-4.35234375 16.06464844-9.10019531 7.92070313-4.74785156 15.59882812-9.87890625 7.678125-5.12929688 15.09609375-10.63125 7.41621094-5.50019531 14.5546875-11.35898438 7.13847656-5.85878906 13.98164063-12.05859375 6.84140625-6.2015625 13.37167968-12.73183594 6.53027344-6.53027344 12.73183594-13.37167968 6.19980469-6.84316406 12.05859375-13.98164063t11.35898438-14.5546875q5.50195313-7.41796875 10.63125-15.09609375 5.13105469-7.678125 9.87890625-15.59882812t9.10019531-16.06464844q4.35410156-8.14394531 8.30214844-16.49179688t7.48125-16.88027343q3.53496094-8.53066406 6.64453125-17.2265625 3.11132813-8.69414062 5.79199218-17.53066407 2.68066406-8.83652344 4.92539063-17.79433593 2.24296875-8.9578125 4.04472656-18.01582032 1.80175781-9.05625 3.15703125-18.19160156 1.35527344-9.13359375 2.26054688-18.3234375 0.90351563-9.18984375 1.35703125-18.41484375 0.45351563-9.22324219 0.45351562-18.45703125z" fill="currentColor"></path><path d="M452.234375 290.515625a59.765625 59.765625 0 1 0 119.53125 0 59.765625 59.765625 0 1 0-119.53125 0Z" fill="currentColor" ></path><path d="M475.0859375 399.5m36.9140625 0l0 0q36.9140625 0 36.9140625 36.9140625l0 319.921875q0 36.9140625-36.9140625 36.9140625l0 0q-36.9140625 0-36.9140625-36.9140625l0-319.921875q0-36.9140625 36.9140625-36.9140625Z" fill="currentColor"></path></svg>