<svg viewBox="0 0 1024 1024" version="1.1" xmlns="http://www.w3.org/2000/svg" width="200"
    height="200">
    <path
        d="M393.159111 431.843556h548.579556c5.00622201 0 9.10222199-4.096 9.102222-9.102223V358.627556a9.159111 9.159111 0 0 0-9.102222-9.102223H393.10222199a9.159111 9.159111 0 0 0-9.10222199 9.102223V422.684444c0 5.063111 4.096 9.159111 9.10222201 9.159112z m-9.102222 233.13066599c0 5.063111 4.096 9.10222199 9.102222 9.10222201h548.579556c5.00622201 0 9.10222199-4.039111 9.102222-9.10222201v-64a9.159111 9.159111 0 0 0-9.102222-9.10222199H393.10222199a9.159111 9.159111 0 0 0-9.10222199 9.10222199v64z m575.943111-555.40622199H64a9.159111 9.159111 0 0 0-9.10222199 9.10222199v64.05688901c0 5.00622201 4.096 9.10222199 9.10222199 9.102222h896c5.063111 0 9.159111-4.096 9.159111-9.102222V118.67022201a9.159111 9.159111 0 0 0-9.102222-9.10222201z m0 722.261333H64a9.159111 9.159111 0 0 0-9.10222199 9.102223v64.056888c0 5.00622201 4.096 9.10222199 9.10222199 9.102223h896c5.063111 0 9.159111-4.096 9.159111-9.102223v-64a9.159111 9.159111 0 0 0-9.102222-9.10222199zM58.76622201 519.736889l178.63111099 140.686222c6.599111 5.23377799 16.49777799 0.568889 16.497778-7.907555V371.143111a10.12622199 10.12622199 0 0 0-16.497778-7.850667l-178.63111099 140.686223a10.012444 10.012444 0 0 0-2e-8 15.758222z"
        fill="currentColor"></path>
</svg>