<svg viewBox="0 0 1024 1024" version="1.1" xmlns="http://www.w3.org/2000/svg" width="200"
    height="200">
    <path
        d="M630.840889 592.156444l-548.579556 0c-5.00622201 0-9.10222199 4.096-9.102222 9.102223L73.15911101 665.372444a9.159111 9.159111 0 0 0 9.10222199 9.102223L630.89777801 674.474667a9.159111 9.159111 0 0 0 9.10222199-9.102223L640 601.315556c0-5.063111-4.096-9.159111-9.10222201-9.159112z m9.102222-233.13066599c0-5.063111-4.096-9.10222199-9.102222-9.10222201l-548.579556 0c-5.00622201 0-9.10222199 4.039111-9.102222 9.10222201l1e-8 64a9.159111 9.159111 0 0 0 9.10222199 9.10222199L630.89777801 432.128a9.159111 9.159111 0 0 0 9.10222199-9.10222199l0-64z m-575.943111 555.40622199L960 914.432a9.159111 9.159111 0 0 0 9.10222199-9.10222199l0-64.05688901c0-5.00622201-4.096-9.10222199-9.10222199-9.102222l-896 0c-5.063111 0-9.159111 4.096-9.159111 9.102222L54.840889 905.32977799a9.159111 9.159111 0 0 0 9.102222 9.10222201z m0-722.261333L960 192.170667a9.159111 9.159111 0 0 0 9.10222199-9.102223l-1e-8-64.056888c0-5.00622201-4.096-9.10222199-9.10222198-9.102223l-896 0c-5.063111 0-9.159111 4.096-9.159111 9.102223l1e-8 64a9.159111 9.159111 0 0 0 9.10222199 9.10222199zM965.23377799 504.263111l-178.63111099-140.686222c-6.599111-5.23377799-16.49777799-0.568889-16.497778 7.907555L770.104889 652.856889a10.12622199 10.12622199 0 0 0 16.497778 7.850667l178.63111099-140.686223a10.012444 10.012444 0 0 0 2e-8-15.758222z"
        fill="currentColor"></path>
</svg>