<svg viewBox="0 0 1024 1024" xmlns="http://www.w3.org/2000/svg" width="200" height="200"><path d="M826.25000029 578.80000039l7.49999971 7.49999971a180 180 0 1 1-254.54999971 254.5999998l-187.50000058-187.4999997a29.99999971 29.99999971 0 0 1 42.40000019-42.4500003l187.49999971 187.49999971a119.99999971 119.99999971 0 0 0 169.7000001-169.69999922l-7.49999971-7.50000058a29.99999971 29.99999971 0 0 1 42.45000029-42.44999942z m-406.05000029-180a29.99999971 29.99999971 0 0 1 0 42.49999951l-187.49999971 187.49999971a119.99999971 119.99999971 0 0 0 169.7000001 169.65l7.49999971-7.49999971a29.99999971 29.99999971 0 1 1 42.45000029 42.4500003l-7.50000058 7.4999997a180 180 0 1 1-254.59999981-254.5499997l187.49999971-187.50000059a29.99999971 29.99999971 0 0 1 42.45000029 0z m413.4999999-201.40000049a180 180 0 0 1 0 254.59999981l-190.6999998 190.70000068a29.99999971 29.99999971 0 0 1-42.4000002-42.45000029l190.69999981-190.69999981a119.99999971 119.99999971 0 1 0-169.7000001-169.7000001l-21.39999961 21.39999961a29.99999971 29.99999971 0 1 1-42.45000029-42.40000019l21.45000058-21.44999971a180 180 0 0 1 254.49999961 0zM512 449.5000001a62.4999999 62.4999999 0 1 1 0 124.9999998 62.4999999 62.4999999 0 0 1 0-124.9999998zM444.79999971 197.3999999l190.7499999 190.74999991a29.99999971 29.99999971 0 1 1-42.44999941 42.40000019L402.40000039 239.85000019A119.99999971 119.99999971 0 0 0 232.70000029 409.5000002l21.39999961 21.39999961a29.99999971 29.99999971 0 1 1-42.45000029 42.45000029L190.25 451.99999971a180 180 0 0 1 254.54999971-254.59999981z" fill="currentColor"></path></svg>