<svg viewBox="0 0 1024 1024" xmlns="http://www.w3.org/2000/svg" version="1.1" width="200"
    height="200">
    <path
        d="M84.80237037 911.16278519a27.1853037 27.1853037 0 0 1-3.68943407-54.13759051L84.80237037 856.79217778h89.32314074V326.83410015a104.8576 104.8576 0 0 1 31.69029689-75.10911051l5.70891378-5.16520771 155.34459259-130.52829392A104.8576 104.8576 0 0 1 539.1853037 196.30580623l-0.03883615 660.48637155H601.32314075V427.88575764a66.02145185 66.02145185 0 0 1 60.31253807-65.74959882l5.70891377-0.27185304a66.02145185 66.02145185 0 0 1 44.35088119 17.12674133l129.24670104 117.20749512a27.1853037 27.1853037 0 0 1 8.93231407 20.11712475v340.4765108H939.19762963a27.1853037 27.1853037 0 0 1 3.68943407 54.13759053L939.19762963 911.16278519H84.80237037z m388.16730074-747.32399881a50.48699259 50.48699259 0 0 0-71.10898726-6.2137837l-155.3445926 130.56713007a50.48699259 50.48699259 0 0 0-18.01997273 38.6419674V856.79217778h256.31857778V196.30580623a50.48699259 50.48699259 0 0 0-8.31093571-27.72900978z m194.37492148 252.43496296a11.65084445 11.65084445 0 0 0-11.65084444 11.65084444v428.82874786h139.81013333v-328.39846874l-120.31438696-109.09074015a11.65084445 11.65084445 0 0 0-5.00986311-2.64085807z m-271.85303704 226.91961364a27.1853037 27.1853037 0 0 1 3.68943408 54.1375905L395.49155555 697.56397038h-77.6722963a27.1853037 27.1853037 0 0 1-3.68943407-54.13759052L317.81925925 643.19336298h77.6722963z m0-194.18074075a27.1853037 27.1853037 0 0 1 3.68943408 54.13759052L395.49155555 503.38322964h-77.6722963a27.1853037 27.1853037 0 0 1-3.68943407-54.13759053L317.81925925 449.01262223h77.6722963z"
        fill="currentColor"></path>
</svg>